<svg width="190" height="105" viewBox="0 0 190 105" fill="none" xmlns="http://www.w3.org/2000/svg">
<g clip-path="url(#clip0_2522_7048)">
<ellipse cx="32.0325" cy="9.12112" rx="32.0325" ry="9.12112" transform="matrix(0.999657 -0.0261769 0 1 63.4473 86.6333)" fill="black" fill-opacity="0.1"/>
<path fill-rule="evenodd" clip-rule="evenodd" d="M73.6215 18.6473L56.5098 45.6975C55.5431 47.2256 55 48.8481 55 50.2079V74.2816C55 75.6415 55.5431 76.6274 56.5099 77.0224C56.5099 77.0224 64.7422 81.9296 67.2902 82.9706C70.446 84.26 73.6215 84.0135 73.6215 84.0135C74.5883 84.4085 75.8996 84.1802 77.2669 83.3789L101.47 69.194C102.837 68.3926 104.149 67.0839 105.116 65.5557L122.227 38.5072C123.194 36.979 123.737 35.3564 123.737 33.9965L130.353 18.2091C130.353 17.8117 133.238 13.6714 133.148 13.3433C132.931 12.5487 122.911 7.4617 122.227 7.1821L105.116 0.189442C104.149 -0.205644 102.837 0.0226037 101.47 0.823969L77.267 15.0088C75.8997 15.8102 74.5883 17.119 73.6215 18.6473Z" fill="#F06A21"/>
<path fill-rule="evenodd" clip-rule="evenodd" d="M83.936 24.4474L66.8242 51.4975C65.8575 53.0257 65.3145 54.6481 65.3145 56.008V80.0816C65.3145 81.4415 65.8576 82.4275 66.8244 82.8225L83.936 89.8136C84.9028 90.2086 86.214 89.9803 87.5813 89.179L111.785 74.994C113.152 74.1927 114.463 72.884 115.43 71.3557L132.542 44.3073C133.508 42.779 134.052 41.1565 134.052 39.7966V15.7229C134.052 14.3631 133.508 13.3772 132.542 12.9822L115.43 5.98949C114.463 5.5944 113.152 5.82265 111.785 6.62402L87.5814 20.8088C86.2141 21.6102 84.9028 22.919 83.936 24.4474Z" fill="#FFA841"/>
<g opacity="0.1">
<path d="M106.538 21.3108C104.741 20.645 104.415 18.2429 105.97 17.1229L112.038 12.753C113.111 11.9802 114.607 12.2235 115.38 13.2965L120.341 20.1846C121.114 21.2576 120.87 22.7539 119.797 23.5267L118.36 24.5622C117.713 25.0281 116.876 25.1415 116.128 24.8645L106.538 21.3108Z" fill="black"/>
<path d="M108.065 19.3351C106.856 18.3719 106.863 16.5333 108.079 15.5793L112.636 12.0033C113.797 11.0923 115.498 11.4382 116.211 12.7303L119.923 19.4588C120.758 20.9726 119.762 22.8455 118.04 23L114.163 23.348C113.549 23.4031 112.938 23.2196 112.456 22.8356L108.065 19.3351Z" fill="black"/>
<path d="M96.1425 81.7243C94.6635 82.5863 92.8216 81.4478 92.9313 79.7395L93.5581 69.9741C93.6338 68.7953 94.6507 67.9011 95.8294 67.9768L106.262 68.6464C107.44 68.722 108.335 69.739 108.259 70.9177L108.082 73.6713C108.037 74.382 107.64 75.0235 107.025 75.3821L96.1425 81.7243Z" fill="black"/>
<path d="M99.0488 78.3629C97.9033 78.8181 96.6111 78.2134 96.2268 77.0422L94.1153 70.6071C93.6548 69.2038 94.7216 67.7671 96.1982 67.8022L106.823 68.0546C108.178 68.0868 109.161 69.3544 108.856 70.6745L108.144 73.7572C107.985 74.441 107.502 75.0038 106.85 75.263L99.0488 78.3629Z" fill="black"/>
<path d="M118.04 29.7235C117.486 28.104 118.964 26.5216 120.617 26.9647L130.069 29.4974C131.21 29.8031 131.887 30.9758 131.582 32.1168L127.808 41.6562C127.503 42.7972 127.397 44.0323 126.257 43.7266L123.591 43.0125C122.903 42.8281 122.352 42.3134 122.122 41.6396L118.04 29.7235Z" fill="black"/>
<path d="M109.781 51.0803C108.472 49.1276 109.872 46.5054 112.222 46.5054H118.472C119.135 46.5054 119.747 46.7252 120.239 47.096C121.68 48.182 121.15 50.3229 120.637 52.0527L120.073 53.9549C119.559 55.6847 119.568 57.8256 118.127 58.9116C117.635 59.2824 117.023 59.5022 116.36 59.5022H115.301C114.321 59.5022 114.257 59.1847 113.711 58.3702L109.781 51.0803Z" fill="black"/>
<path d="M110.122 50.9991C108.704 48.8282 110.587 46.019 113.134 46.5054L115.943 47.0421C117.283 47.298 118.271 48.442 118.328 49.8048L118.546 54.946C118.596 56.1363 117.841 57.212 116.704 57.5689C115.579 57.9222 114.356 57.484 113.711 56.4964L110.122 50.9991Z" fill="black"/>
<path d="M104.142 42.7341C101.703 43.3753 99.5189 41.0652 100.296 38.6655L102.422 32.104C102.974 30.4008 104.819 29.4851 106.509 30.0755L114.689 32.9332C116.349 33.513 117.227 35.3268 116.652 36.9884L116.273 38.0829C115.925 39.0884 115.098 39.8543 114.069 40.1248L104.142 42.7341Z" fill="black"/>
<path d="M106.306 39.0603C104.612 39.1915 103.112 37.9717 102.896 36.2862L102.464 32.9256C102.21 30.9548 103.801 29.2344 105.786 29.3327L113.681 29.7235C115.343 29.8058 116.662 31.151 116.712 32.8139L116.784 35.2C116.835 36.9026 115.54 38.345 113.842 38.4766L106.306 39.0603Z" fill="black"/>
<path d="M84.4958 28.5511C85.4527 27.1327 87.6051 27.3564 88.2498 28.9413L91.8671 37.8334C92.3122 38.9275 91.7861 40.1753 90.692 40.6204L81.1468 44.5033C80.0527 44.9484 78.805 44.4223 78.3599 43.3282L77.3477 40.8401C77.0791 40.1797 77.1571 39.429 77.5558 38.838L84.4958 28.5511Z" fill="black"/>
<path d="M84.8124 27.9157C85.8167 26.4149 88.114 26.7573 88.6369 28.4858L90.4299 34.4127C90.672 35.2128 90.4257 36.0806 89.7994 36.6343L85.4997 40.4355C84.7063 41.1369 83.5193 41.1521 82.7082 40.4714L80.1448 38.32C79.3087 37.6183 79.1352 36.3995 79.7423 35.4924L84.8124 27.9157Z" fill="black"/>
<path d="M77.6682 63.1813C75.9832 64.3448 73.6819 63.1568 73.6545 61.1093L73.5519 53.4552C73.5323 51.9896 74.7451 50.8068 76.2097 50.8632L84.6957 51.1896C85.9089 51.2363 86.9224 52.1288 87.1221 53.3264L87.3521 54.7064C87.5153 55.6851 87.0982 56.6698 86.2817 57.2336L77.6682 63.1813Z" fill="black"/>
<path d="M79.2378 60.7528C77.8862 61.4602 76.2197 60.8357 75.6659 59.4142L74.2049 55.6641C73.6681 54.2865 74.4069 52.7419 75.8162 52.295L81.3986 50.525C82.2415 50.2577 83.1627 50.4445 83.835 51.019L86.2758 53.1047C87.6533 54.2819 87.4052 56.4782 85.7998 57.3184L79.2378 60.7528Z" fill="black"/>
<path d="M87.3696 84.5808C87.3707 86.2918 85.462 87.3114 84.0405 86.359L78.6321 82.7357C77.6508 82.0783 77.3883 80.7498 78.0457 79.7685L82.1889 73.5842C82.8463 72.6029 84.1747 72.3404 85.1561 72.9978L86.4153 73.8414C87.0076 74.2382 87.3632 74.904 87.3637 75.6169L87.3696 84.5808Z" fill="black"/>
<path d="M87.15 81.3295C87.059 83.1653 84.8475 84.0387 83.5266 82.7604L81.7066 80.9991C81.1955 80.5045 80.9637 79.7882 81.0882 79.0879L81.919 74.4145C82.1763 72.9674 83.7828 72.2051 85.0664 72.9209L86.3395 73.6309C87.05 74.0271 87.4741 74.7922 87.4339 75.6047L87.15 81.3295Z" fill="black"/>
<path d="M78.6321 73.6111C80.5595 75.3851 79.7269 78.5916 77.1799 79.2038L71.9413 80.463C70.183 80.8856 68.4151 79.8028 67.9925 78.0446L66.3199 71.086C65.8973 69.3277 66.9801 67.5598 68.7383 67.1372L69.3084 67.0002C70.3695 66.7451 71.488 67.0355 72.291 67.7746L78.6321 73.6111Z" fill="black"/>
<path d="M75.8162 72.5326C77.5171 74.5642 75.4346 77.5378 72.9439 76.6338C72.6965 76.544 72.4643 76.4171 72.2551 76.2574L68.4287 73.3359C66.4866 71.8531 66.918 68.816 69.1961 67.9327C70.4458 67.4481 71.8654 67.8135 72.7258 68.8412L75.8162 72.5326Z" fill="black"/>
</g>
<path d="M113.126 20.9917C109.379 19.6031 108.7 14.5936 111.943 12.2578C114.181 10.6461 117.301 11.1536 118.913 13.3913L121.68 17.2326C122.826 18.8236 122.465 21.0423 120.874 22.1882C119.914 22.8792 118.674 23.0472 117.565 22.6364L113.126 20.9917Z" fill="#660000"/>
<path d="M112.426 19.1915C110.019 17.2733 110.033 13.6115 112.455 11.7117C114.767 9.8975 118.153 10.5864 119.573 13.1597L120.446 14.7419C121.983 17.5289 120.151 20.9768 116.98 21.2613C115.851 21.3627 114.726 21.0248 113.839 20.3179L112.426 19.1915Z" fill="#78223D"/>
<path d="M103.674 76.4959C99.8426 78.7287 95.0715 75.7797 95.3556 71.3546C95.5516 68.3012 98.1857 65.9849 101.239 66.1809L106.481 66.5173C108.651 66.6567 110.298 68.5295 110.159 70.7004C110.075 72.0095 109.345 73.1908 108.212 73.8513L103.674 76.4959Z" fill="#660000"/>
<path d="M103.764 75.2757C101.155 76.3124 98.2118 74.9351 97.3366 72.2678C96.2878 69.0716 98.7175 65.7997 102.08 65.8796L106.622 65.9875C109.121 66.0469 110.935 68.3852 110.372 70.8204C110.081 72.0818 109.188 73.1199 107.985 73.5981L103.764 75.2757Z" fill="#78223D"/>
<path d="M121.994 32.76C122.209 29.2082 126.302 27.3357 129.13 29.4954C131.081 30.9857 131.455 33.7756 129.965 35.7268L127.406 39.0765C126.347 40.4638 124.363 40.7296 122.976 39.67C122.139 39.0312 121.676 38.0178 121.739 36.9671L121.994 32.76Z" fill="#660000"/>
<path d="M124.772 32.6624C125.317 31.1331 126.924 30.2566 128.505 30.6249C130.626 31.1188 131.642 33.5433 130.507 35.4016L127.887 39.6905C127.062 41.0409 125.252 41.3848 123.99 40.431C123.056 39.7261 122.689 38.497 123.082 37.3956L124.772 32.6624Z" fill="#78223D"/>
<path d="M112.735 51.9525C110.459 48.5549 112.894 43.9924 116.984 43.9924C119.808 43.9924 122.097 46.282 122.097 49.1063V53.9896C122.097 55.994 120.473 57.6188 118.468 57.6188C117.258 57.6188 116.127 57.0153 115.453 56.0095L112.735 51.9525Z" fill="#660000"/>
<path d="M114.09 50.9075C112.234 48.065 114.7 44.3867 118.034 45.0236C119.788 45.3587 121.082 46.8567 121.157 48.6412L121.344 53.0627C121.394 54.253 120.639 55.3287 119.502 55.6856C118.377 56.0389 117.154 55.6006 116.509 54.6131L114.09 50.9075Z" fill="#78223D"/>
<path d="M101.897 30.5971C98.4159 31.5121 95.2997 28.2155 96.4092 24.791C97.1966 22.3604 99.8295 21.0536 102.242 21.8962L106.408 23.3518C108.075 23.9341 108.957 25.7557 108.379 27.4244C108.03 28.4343 107.2 29.2034 106.166 29.4751L101.897 30.5971Z" fill="#660000"/>
<path d="M101.399 28.4337C99.3426 28.5929 97.5226 27.1126 97.2597 25.0672C96.9524 22.6754 98.8827 20.5876 101.291 20.7069L105.218 20.9013C107.105 20.9947 108.603 22.522 108.66 24.4099C108.718 26.3429 107.247 27.9806 105.319 28.13L101.399 28.4337Z" fill="#78223D"/>
<path d="M83.0096 31.727C85.4604 28.0942 90.973 28.6672 92.6242 32.7264C93.7642 35.5286 92.4167 38.7244 89.6145 39.8643L84.7848 41.829C82.7945 42.6387 80.5246 41.6816 79.715 39.6913C79.2263 38.4901 79.3683 37.1243 80.0935 36.0493L83.0096 31.727Z" fill="#660000"/>
<path d="M84.1865 29.8498C86.2458 26.7723 90.9567 27.4745 92.0289 31.0189C92.5253 32.6596 92.0202 34.4391 90.736 35.5745L88.7442 37.3353C87.245 38.6607 85.0015 38.6895 83.4687 37.4031C81.8886 36.0769 81.5607 33.7736 82.708 32.0592L84.1865 29.8498Z" fill="#78223D"/>
<path d="M82.4771 59.8786C79.0712 62.2304 74.4197 59.8292 74.3642 55.6905C74.3246 52.7282 76.7758 50.3376 79.7363 50.4514L84.6856 50.6418C86.3562 50.7061 87.7519 51.9352 88.0268 53.5843C88.2514 54.9319 87.6771 56.288 86.5528 57.0643L82.4771 59.8786Z" fill="#660000"/>
<path d="M81.7921 57.6628C79.4674 58.8795 76.6011 57.8054 75.6486 55.3605C74.7254 52.991 75.996 50.3343 78.4201 49.5657L81.2929 48.6548C82.6556 48.2227 84.1449 48.5247 85.2318 49.4534C87.4586 51.3564 87.0575 54.9071 84.4623 56.2654L81.7921 57.6628Z" fill="#78223D"/>
<path d="M89.3813 78.3211C89.3836 81.8436 85.4541 83.9425 82.5277 81.9819C80.5075 80.6285 79.967 77.8936 81.3204 75.8734L83.6531 72.3915C84.6144 70.9566 86.5569 70.5727 87.9918 71.534C88.8578 72.1142 89.3778 73.0877 89.3785 74.1301L89.3813 78.3211Z" fill="#660000"/>
<path d="M89.2644 77.2779C89.134 79.9079 85.9658 81.1591 84.0736 79.3279C83.3414 78.6193 83.0093 77.5931 83.1877 76.5899L83.7555 73.3958C84.0993 71.4617 86.2466 70.4428 87.9623 71.3996C88.9119 71.9292 89.4789 72.9517 89.425 74.0378L89.2644 77.2779Z" fill="#78223D"/>
<path d="M77.0983 70.5057C80.1288 73.2949 78.8196 78.3367 74.815 79.2992C72.0505 79.9637 69.2707 78.2613 68.6062 75.4967L67.461 70.732C66.989 68.7684 68.1982 66.794 70.1618 66.3221C71.3468 66.0372 72.5959 66.3616 73.4927 67.187L77.0983 70.5057Z" fill="#660000"/>
<path d="M76.8687 71.8072C78.5696 73.8388 76.487 76.8124 73.9964 75.9084C73.749 75.8186 73.5167 75.6917 73.3076 75.532L69.4811 72.6105C67.5391 71.1277 67.9705 68.0906 70.2486 67.2073C71.4983 66.7227 72.9178 67.0881 73.7782 68.1158L76.8687 71.8072Z" fill="#78223D"/>
<path opacity="0.1" fill-rule="evenodd" clip-rule="evenodd" d="M99.2142 73.1653C110.986 66.634 113.78 54.9169 113.78 54.9169L120.536 32.8893C120.536 32.8893 121.146 30.6533 121.034 30.6943C114.742 33.0783 113.404 37.995 113.404 37.995C113.404 37.995 110.986 45.2505 110.611 45.4586C110.236 45.6666 110.191 45.254 110.191 45.254V24.0076C110.191 24.0076 110.309 21.2016 107.32 22.86C104.331 24.5185 104.482 27.1807 104.482 27.1807L104.487 42.8739C104.487 42.8739 104.526 43.4846 103.967 43.7952C103.468 44.0716 103.496 43.4447 103.496 43.4447V24.5332C103.496 24.5332 103.681 21.342 100.658 23.0191C97.6356 24.6962 97.798 27.7159 97.798 27.7159L97.77 46.3899C97.77 46.3899 97.8092 46.9427 97.311 47.2191C96.8464 47.4769 96.8631 46.8983 96.8631 46.8983V31.2547C96.8631 31.2547 97.0311 27.978 93.9523 29.6861C90.9295 31.3632 91.0919 34.5147 91.0919 34.5147L91.0639 51.0488C91.0639 51.0488 91.1199 51.4974 90.6441 51.7614C90.1403 52.0409 90.1515 51.555 90.1515 51.555L90.1291 41.5793C90.1291 41.5793 90.1571 38.8019 87.6157 40.2119C84.912 41.712 84.9624 44.4459 84.9624 44.4459V66.0033C84.9791 65.9888 84.2794 81.4514 99.2142 73.1653Z" fill="black"/>
<path d="M105.887 78.9639L105.944 78.9465L105.996 78.9175C112.059 75.5539 115.341 69.5231 117.107 64.4052C117.993 61.839 118.506 59.4817 118.796 57.7658C118.942 56.9074 119.032 56.2081 119.087 55.7217C119.114 55.4784 119.132 55.2884 119.143 55.1581C119.145 55.1339 119.147 55.1118 119.149 55.0918L131.153 34.8171L131.4 34.3999L131.026 34.0916L130.666 34.5287L131.026 34.0916L131.026 34.0915L131.025 34.0909L131.022 34.0888L131.012 34.0804L130.973 34.0479L130.823 33.9248C130.694 33.8187 130.509 33.6673 130.288 33.4858C129.844 33.1227 129.252 32.6388 128.656 32.1561C128.06 31.6738 127.458 31.1908 126.998 30.8303C126.768 30.6506 126.569 30.498 126.422 30.3905C126.35 30.3376 126.283 30.29 126.228 30.2545C126.202 30.2379 126.166 30.2155 126.127 30.1959C126.109 30.1869 126.073 30.1695 126.027 30.155C126.004 30.1478 125.964 30.1366 125.913 30.1311C125.868 30.1264 125.769 30.1204 125.654 30.1627L125.654 30.1627L125.648 30.1649C122.388 31.4004 120.395 33.2998 119.218 34.9036C118.631 35.7038 118.248 36.4284 118.01 36.9576C117.891 37.2223 117.809 37.4385 117.755 37.5914C117.728 37.6679 117.708 37.7286 117.695 37.7717C117.688 37.7932 117.683 37.8104 117.679 37.8229L117.678 37.8279L117.675 37.8365L117.655 37.8968L117.578 38.1267C117.511 38.325 117.416 38.6085 117.299 38.9495C117.067 39.6317 116.754 40.5428 116.429 41.4598C116.135 42.2926 115.832 43.126 115.572 43.7961V24.0161L115.572 24.0137C115.573 24.0051 115.573 23.9939 115.573 23.9801C115.573 23.9528 115.573 23.9155 115.571 23.87C115.568 23.7797 115.559 23.6547 115.538 23.5108C115.496 23.2332 115.399 22.8368 115.156 22.4882C114.897 22.1171 114.484 21.8186 113.885 21.775C113.321 21.7338 112.654 21.9245 111.86 22.3649C110.238 23.2648 109.445 24.4546 109.066 25.4389C108.986 25.648 108.924 25.8467 108.877 26.0303V24.5464C108.878 24.5378 108.878 24.5265 108.879 24.5129C108.879 24.4836 108.88 24.4432 108.879 24.3936C108.878 24.2949 108.873 24.1577 108.856 23.9991C108.822 23.6919 108.739 23.2588 108.519 22.8691C108.289 22.462 107.897 22.0847 107.279 21.9887C106.693 21.8978 106.005 22.0764 105.198 22.524C103.544 23.4419 102.749 24.7391 102.375 25.8096C102.189 26.3413 102.107 26.8156 102.071 27.1596C102.054 27.332 102.047 27.4728 102.046 27.5732C102.045 27.6235 102.045 27.6637 102.046 27.6929C102.046 27.707 102.046 27.7185 102.046 27.7273L102.043 29.9319C101.997 29.804 101.94 29.6753 101.87 29.5509C101.635 29.1372 101.237 28.7522 100.61 28.6516C100.015 28.556 99.3143 28.735 98.4924 29.1911C96.8321 30.1122 96.039 31.4476 95.6669 32.548C95.4819 33.0953 95.4004 33.585 95.3651 33.94C95.3474 34.1179 95.3411 34.2633 95.3394 34.3667C95.3386 34.4185 95.3389 34.4599 95.3394 34.4898C95.3397 34.5046 95.3401 34.5166 95.3404 34.5256C95.3404 34.5257 95.3404 34.5258 95.3404 34.5258L95.3303 40.5187C95.2791 40.3719 95.2126 40.2207 95.1257 40.0757C94.9094 39.715 94.5497 39.3705 93.9929 39.273C93.4595 39.1797 92.8488 39.3323 92.1557 39.7168C90.6632 40.5449 89.922 41.7228 89.5595 42.6933C89.3792 43.1759 89.2923 43.6069 89.2503 43.92C89.2292 44.0769 89.2193 44.2053 89.2147 44.2971C89.2124 44.343 89.2114 44.3799 89.211 44.4068C89.2109 44.4202 89.2108 44.4311 89.2108 44.4394L89.2109 44.4459V44.4491V65.9984L89.2096 66.0247C89.208 66.0583 89.2055 66.1094 89.2028 66.1759C89.1975 66.309 89.1915 66.5026 89.19 66.7465C89.187 67.2339 89.2018 67.923 89.2745 68.733C89.4194 70.3465 89.7971 72.4703 90.7467 74.4391C91.7002 76.4159 93.2421 78.2575 95.7119 79.2399C98.1747 80.2196 101.476 80.3116 105.887 78.9639ZM95.1378 51.2883C95.1378 51.2883 95.1385 51.288 95.1399 51.2877L95.1378 51.2883ZM101.835 46.7319C101.835 46.7319 101.836 46.7315 101.838 46.7308C101.836 46.7317 101.835 46.732 101.835 46.7319ZM108.486 43.3106C108.486 43.3105 108.487 43.31 108.489 43.3093C108.487 43.3102 108.486 43.3106 108.486 43.3106Z" fill="#C6C6C6" stroke="#C6C6C6" stroke-width="1.13238"/>
<path d="M101.39 29.0069L100.963 28.6176L100.583 29.0525L98.4508 31.4892L98.2436 31.7261L98.3354 32.0271L101.896 43.7093L103.001 43.6042L104.245 31.922L104.275 31.6368L104.063 31.4436L101.39 29.0069Z" fill="#C6C6C6" stroke="#C6C6C6" stroke-width="1.13238"/>
<path d="M108.337 22.6332L107.91 22.2438L107.53 22.6788L105.398 25.1154L105.189 25.3542L105.284 25.657L108.899 37.2358L110.003 37.1249L111.192 25.5461L111.221 25.2621L111.01 25.0698L108.337 22.6332Z" fill="#C6C6C6" stroke="#C6C6C6" stroke-width="1.13238"/>
<path d="M94.9699 39.9712L94.5636 39.6055L94.1839 39.9987L92.0438 42.2142L91.7803 42.4871L91.9324 42.8346L96.7473 53.8358L97.8322 53.6088L97.8322 42.7995L97.8322 42.5474L97.6448 42.3787L94.9699 39.9712Z" fill="#C6C6C6" stroke="#C6C6C6" stroke-width="1.13238"/>
<path d="M115.01 22.2993L114.63 21.9883L114.268 22.321L111.861 24.5366L111.529 24.842L111.753 25.2337L117.088 34.5904L117.81 35.8576L118.132 34.4348L119.883 26.6888L119.96 26.3474L119.689 26.1258L115.01 22.2993Z" fill="#C6C6C6" stroke="#C6C6C6" stroke-width="1.13238"/>
<path d="M130.063 34.6006C130.063 34.6005 130.062 34.6023 130.062 34.6062C130.062 34.6026 130.062 34.6006 130.063 34.6006ZM122.445 41.7133L122.443 41.7183L122.441 41.7268L122.42 41.7872L122.343 42.0171C122.277 42.2153 122.181 42.4989 122.065 42.8399C121.833 43.5221 121.52 44.4332 121.195 45.3502C120.9 46.1829 120.597 47.0163 120.338 47.6865V27.9065L120.338 27.9041C120.338 27.8955 120.338 27.8842 120.338 27.8705C120.338 27.8432 120.338 27.8058 120.336 27.7604C120.333 27.6701 120.325 27.5451 120.303 27.4012C120.261 27.1235 120.164 26.7272 119.921 26.3786C119.663 26.0075 119.249 25.709 118.651 25.6653C118.086 25.6242 117.419 25.8149 116.625 26.2553C115.003 27.1552 114.21 28.345 113.831 29.3293C113.751 29.5383 113.69 29.7371 113.643 29.9207V28.4368C113.643 28.4281 113.644 28.4169 113.644 28.4033C113.645 28.374 113.645 28.3336 113.645 28.284C113.644 28.1853 113.638 28.0481 113.621 27.8895C113.587 27.5823 113.504 27.1492 113.284 26.7595C113.055 26.3524 112.662 25.9751 112.044 25.8791C111.459 25.7882 110.771 25.9668 109.964 26.4144C108.309 27.3323 107.515 28.6295 107.14 29.6999C106.954 30.2316 106.872 30.7059 106.837 31.05C106.819 31.2223 106.813 31.3632 106.811 31.4636C106.81 31.5139 106.81 31.5541 106.811 31.5833C106.811 31.5974 106.812 31.6088 106.812 31.6177L106.809 33.8222C106.762 33.6944 106.705 33.5657 106.635 33.4413C106.401 33.0275 106.003 32.6426 105.376 32.542C104.78 32.4463 104.08 32.6254 103.258 33.0814C101.597 34.0026 100.804 35.338 100.432 36.4384C100.247 36.9857 100.166 37.4753 100.13 37.8304C100.113 38.0083 100.106 38.1537 100.105 38.2571C100.104 38.3089 100.104 38.3503 100.105 38.3801C100.105 38.395 100.105 38.407 100.106 38.416C100.106 38.4161 100.106 38.4161 100.106 38.4162L100.096 44.4091C100.044 44.2623 99.978 44.111 99.891 43.9661C99.6747 43.6054 99.3151 43.2609 98.7582 43.1634C98.2249 43.0701 97.6141 43.2227 96.9211 43.6072C95.4286 44.4353 94.6874 45.6132 94.3248 46.5837C94.1446 47.0662 94.0576 47.4973 94.0156 47.8104C93.9946 47.9673 93.9847 48.0957 93.9801 48.1875C93.9778 48.2334 93.9768 48.2703 93.9764 48.2972C93.9762 48.3106 93.9762 48.3215 93.9762 48.3298L93.9762 48.3363V48.3395V69.8937V69.9308L93.9762 69.9324C93.9758 69.9611 93.9753 70.0044 93.975 70.0599C93.9746 70.1301 93.9748 70.2196 93.9762 70.326V71.1355L94.0065 71.1093C94.027 71.4408 94.0605 71.8252 94.1146 72.2443C94.2893 73.5976 94.6841 75.3578 95.5884 76.8674C96.5035 78.3952 97.9514 79.6783 100.191 79.991C102.399 80.2993 105.284 79.6507 109.069 77.5508C115.067 74.2231 118.775 69.5754 120.981 65.766C122.085 63.861 122.815 62.1625 123.27 60.9372C123.498 60.3244 123.657 59.8294 123.759 59.4853C123.81 59.3133 123.848 59.179 123.872 59.0865C123.885 59.0402 123.894 59.0044 123.9 58.9796L123.906 58.958L130.657 36.9457L130.66 36.9372L130.662 36.9287L130.116 36.7797L130.662 36.9287L130.662 36.9286L130.662 36.9282L130.663 36.9269L130.664 36.9219L130.669 36.9029L130.689 36.8311C130.705 36.7694 130.729 36.6815 130.757 36.5761C130.813 36.3657 130.886 36.0847 130.956 35.8042C131.026 35.5257 131.094 35.24 131.138 35.0232C131.16 34.9184 131.179 34.812 131.188 34.726C131.192 34.6924 131.199 34.6168 131.189 34.5357L131.189 34.5342C131.186 34.5057 131.171 34.3833 131.086 34.2617C131.034 34.1877 130.94 34.0933 130.793 34.0457C130.644 33.9976 130.51 34.0198 130.419 34.0531L130.419 34.0531L130.414 34.0552C127.153 35.2907 125.161 37.1902 123.984 38.794C123.396 39.5942 123.013 40.3188 122.775 40.8479C122.657 41.1126 122.574 41.3289 122.52 41.4818C122.493 41.5583 122.474 41.619 122.46 41.6621C122.454 41.6836 122.448 41.7008 122.445 41.7133ZM113.251 47.2009C113.251 47.2009 113.252 47.2004 113.254 47.1997C113.252 47.2006 113.251 47.201 113.251 47.2009ZM106.603 50.6212C106.601 50.622 106.601 50.6224 106.601 50.6223C106.601 50.6223 106.601 50.6219 106.603 50.6212ZM99.9032 55.1787C99.9032 55.1787 99.9039 55.1784 99.9052 55.178L99.9032 55.1787Z" fill="white" stroke="#C6C6C6" stroke-width="1.13238"/>
</g>
<defs>
<clipPath id="clip0_2522_7048">
<rect width="190" height="104.876" fill="white"/>
</clipPath>
</defs>
</svg>
