<svg width="126" height="164" viewBox="0 0 126 164" fill="none" xmlns="http://www.w3.org/2000/svg">
<ellipse cx="50.052" cy="14.2521" rx="50.052" ry="14.2521" transform="matrix(0.999657 -0.0261769 0 1 13.1973 135.368)" fill="black" fill-opacity="0.1"/>
<path fill-rule="evenodd" clip-rule="evenodd" d="M29.0968 29.1372L2.3591 71.404C0.848587 73.7919 0 76.327 0 78.4518V116.068C0 118.193 0.848683 119.733 2.35935 120.35C2.35935 120.35 15.2225 128.018 19.2039 129.645C24.135 131.659 29.0969 131.274 29.0969 131.274C30.6075 131.892 32.6564 131.535 34.7928 130.283L72.6115 108.118C74.7479 106.866 76.7968 104.821 78.3075 102.433L105.045 60.169C106.556 57.7811 107.404 55.2458 107.404 53.1208L117.743 28.4524C117.743 27.8315 122.25 21.3621 122.11 20.8494C121.77 19.6078 106.114 11.6592 105.045 11.2223L78.3075 0.296011C76.7968 -0.321327 74.7478 0.0353191 72.6113 1.28748L34.793 23.4518C32.6565 24.704 30.6075 26.7491 29.0968 29.1372Z" fill="#F06A21"/>
<path fill-rule="evenodd" clip-rule="evenodd" d="M45.212 38.2001L18.4743 80.467C16.9638 82.8549 16.1152 85.39 16.1152 87.5148V125.131C16.1152 127.256 16.9639 128.796 18.4746 129.413L45.2121 140.337C46.7228 140.955 48.7717 140.598 50.9081 139.346L88.7267 117.181C90.8631 115.929 92.912 113.884 94.4227 111.496L121.16 69.232C122.671 66.8441 123.52 64.3088 123.52 62.1838V24.5679C123.52 22.443 122.671 20.9026 121.16 20.2853L94.4227 9.359C92.912 8.74166 90.863 9.09831 88.7265 10.3505L50.9083 32.5148C48.7717 33.767 46.7227 35.8121 45.212 38.2001Z" fill="#FFA841"/>
<g opacity="0.1">
<path d="M80.5314 33.2993C77.7235 32.2589 77.215 28.5055 79.6448 26.7555L89.1253 19.9273C90.8018 18.7197 93.1398 19.1 94.3474 20.7766L102.099 31.5395C103.307 33.2161 102.927 35.5542 101.25 36.7617L99.0037 38.3796C97.9928 39.1077 96.6857 39.2848 95.5174 38.852L80.5314 33.2993Z" fill="black"/>
<path d="M82.9175 30.2122C81.0293 28.7071 81.0403 25.8341 82.9399 24.3435L90.0608 18.7558C91.8749 17.3324 94.5322 17.8729 95.646 19.8919L101.446 30.4054C102.751 32.7708 101.196 35.6973 98.5048 35.9387L92.4456 36.4825C91.4869 36.5685 90.532 36.2818 89.7793 35.6818L82.9175 30.2122Z" fill="black"/>
<path d="M64.2886 127.698C61.9776 129.044 59.0996 127.266 59.2709 124.596L60.2504 109.337C60.3686 107.496 61.9576 106.098 63.7994 106.217L80.1003 107.263C81.9421 107.381 83.3394 108.97 83.2212 110.812L82.945 115.114C82.8737 116.225 82.2542 117.227 81.2927 117.788L64.2886 127.698Z" fill="black"/>
<path d="M68.8298 122.445C67.0399 123.157 65.0209 122.212 64.4204 120.382L61.121 110.327C60.4015 108.134 62.0685 105.889 64.3757 105.944L80.9778 106.338C83.0943 106.389 84.6312 108.369 84.1543 110.432L83.0407 115.249C82.7936 116.317 82.0381 117.197 81.0189 117.602L68.8298 122.445Z" fill="black"/>
<path d="M98.5048 46.4444C97.6381 43.9139 99.9476 41.4414 102.531 42.1337L117.301 46.0911C119.083 46.5688 120.141 48.4012 119.664 50.1839L113.768 65.0898C113.29 66.8725 113.126 68.8025 111.343 68.3248L107.179 67.2089C106.104 66.9209 105.243 66.1166 104.882 65.0638L98.5048 46.4444Z" fill="black"/>
<path d="M85.5986 79.8152C83.5546 76.764 85.7413 72.6668 89.4139 72.6668H99.1791C100.563 72.6668 101.803 73.2787 102.645 74.2467C104.075 75.8909 103.457 78.3201 102.837 80.4092L101.406 85.2323C100.786 87.3214 100.775 89.7507 99.3452 91.3948C98.5032 92.3628 97.2625 92.9747 95.8789 92.9747H94.2247C92.6929 92.9747 92.5926 92.4786 91.74 91.206L85.5986 79.8152Z" fill="black"/>
<path d="M86.1316 79.6883C83.9168 76.2962 86.8593 71.9068 90.8384 72.6668L95.2283 73.5053C97.3217 73.9052 98.8649 75.6928 98.9549 77.8222L99.2943 85.8555C99.3729 87.7154 98.1927 89.3963 96.4166 89.9539C94.6584 90.5059 92.7475 89.8212 91.74 88.2781L86.1316 79.6883Z" fill="black"/>
<path d="M76.7885 66.7739C72.9764 67.7759 69.5644 64.1662 70.7791 60.4166L74.1006 50.164C74.9628 47.5027 77.8457 46.0718 80.4867 46.9944L93.2686 51.4596C95.8624 52.3657 97.2339 55.1997 96.3352 57.796L95.7433 59.5063C95.1994 61.0775 93.9079 62.2741 92.2999 62.6968L76.7885 66.7739Z" fill="black"/>
<path d="M80.1698 61.0335C77.5225 61.2385 75.1791 59.3325 74.8407 56.6989L74.1658 51.4478C73.7701 48.3683 76.2554 45.6802 79.3564 45.8337L91.6935 46.4444C94.2898 46.573 96.3514 48.675 96.4296 51.2733L96.5417 55.0016C96.6217 57.6619 94.5977 59.9159 91.9441 60.1214L80.1698 61.0335Z" fill="black"/>
<path d="M46.0902 44.6125C47.5854 42.3962 50.9486 42.7458 51.956 45.2222L57.6082 59.1164C58.3037 60.826 57.4815 62.7757 55.772 63.4712L40.8573 69.5385C39.1477 70.2339 37.198 69.4118 36.5026 67.7023L34.921 63.8144C34.5013 62.7827 34.6232 61.6096 35.2462 60.6862L46.0902 44.6125Z" fill="black"/>
<path d="M46.5849 43.6196C48.1541 41.2745 51.7438 41.8097 52.5609 44.5105L55.3625 53.7715C55.7407 55.0217 55.3559 56.3777 54.3773 57.2428L47.6588 63.1824C46.4192 64.2782 44.5643 64.3021 43.297 63.2384L39.2916 59.8768C37.9852 58.7803 37.7141 56.876 38.6626 55.4585L46.5849 43.6196Z" fill="black"/>
<path d="M35.4219 98.7234C32.7889 100.542 29.193 98.6853 29.1502 95.4859L28.99 83.526C28.9594 81.236 30.8543 79.3879 33.1429 79.476L46.4026 79.986C48.2983 80.0589 49.8819 81.4536 50.1939 83.3249L50.5533 85.4812C50.8083 87.0104 50.1565 88.5491 48.8808 89.43L35.4219 98.7234Z" fill="black"/>
<path d="M37.8744 94.9288C35.7624 96.0342 33.1585 95.0583 32.2932 92.8372L30.0102 86.9776C29.1716 84.825 30.3259 82.4115 32.5281 81.7133L41.2506 78.9475C42.5678 78.5299 44.0073 78.8217 45.0577 79.7194L48.8715 82.9785C51.0239 84.8178 50.6362 88.2497 48.1278 89.5625L37.8744 94.9288Z" fill="black"/>
<path d="M50.5806 132.161C50.5824 134.835 47.5999 136.428 45.3788 134.94L36.928 129.278C35.3947 128.251 34.9844 126.175 36.0117 124.642L42.4855 114.978C43.5128 113.445 45.5886 113.035 47.1219 114.062L49.0896 115.38C50.015 116 50.5706 117.041 50.5714 118.155L50.5806 132.161Z" fill="black"/>
<path d="M50.2375 127.081C50.0952 129.949 46.6397 131.314 44.5758 129.317L41.732 126.565C40.9333 125.792 40.5712 124.672 40.7657 123.578L42.0639 116.276C42.4659 114.015 44.9761 112.823 46.9818 113.942L48.971 115.051C50.0812 115.671 50.744 116.866 50.681 118.136L50.2375 127.081Z" fill="black"/>
<path d="M36.928 115.02C39.9395 117.792 38.6385 122.803 34.6589 123.759L26.4732 125.727C23.7259 126.387 20.9635 124.695 20.3031 121.948L17.6897 111.075C17.0294 108.328 18.7212 105.565 21.4685 104.905L22.3593 104.691C24.0174 104.292 25.765 104.746 27.0197 105.901L36.928 115.02Z" fill="black"/>
<path d="M32.5281 113.335C35.1858 116.51 31.9317 121.156 28.04 119.744C27.6534 119.603 27.2905 119.405 26.9637 119.155L20.9847 114.59C17.9502 112.274 18.6243 107.528 22.1839 106.148C24.1366 105.391 26.3547 105.961 27.6991 107.567L32.5281 113.335Z" fill="black"/>
</g>
<path d="M90.8261 32.8018C84.9703 30.6321 83.9098 22.8045 88.9771 19.1548C92.4736 16.6365 97.3495 17.4294 99.8678 20.9259L104.191 26.9281C105.981 29.4141 105.418 32.8809 102.932 34.6714C101.433 35.751 99.4945 36.0136 97.7623 35.3718L90.8261 32.8018Z" fill="#660000"/>
<path d="M89.7315 29.9897C85.9712 26.9924 85.9931 21.2707 89.7762 18.3022C93.3888 15.4674 98.681 16.5439 100.899 20.5647L102.263 23.037C104.666 27.3917 101.802 32.7793 96.8482 33.2238C95.0832 33.3822 93.3252 32.8543 91.9395 31.7497L89.7315 29.9897Z" fill="#78223D"/>
<path d="M76.0558 119.529C70.0696 123.018 62.6146 118.41 63.0584 111.495C63.3646 106.724 67.4806 103.105 72.2516 103.411L80.4416 103.937C83.8338 104.155 86.4072 107.081 86.1894 110.473C86.0581 112.518 84.9172 114.364 83.1464 115.396L76.0558 119.529Z" fill="#660000"/>
<path d="M76.1973 117.623C72.1209 119.243 67.5225 117.091 66.1549 112.923C64.5162 107.929 68.3127 102.817 73.5673 102.942L80.6637 103.11C84.568 103.203 87.4032 106.857 86.5235 110.662C86.0678 112.633 84.6739 114.255 82.7939 115.002L76.1973 117.623Z" fill="#78223D"/>
<path d="M104.681 51.1894C105.017 45.6396 111.412 42.7138 115.831 46.0884C118.88 48.417 119.464 52.7763 117.136 55.8253L113.138 61.0592C111.483 63.227 108.383 63.6422 106.215 61.9867C104.908 60.9884 104.184 59.4049 104.283 57.7632L104.681 51.1894Z" fill="#660000"/>
<path d="M109.021 51.0369C109.874 48.6473 112.384 47.2777 114.855 47.8532C118.169 48.6249 119.756 52.4133 117.983 55.317L113.889 62.0185C112.6 64.1286 109.772 64.6659 107.799 63.1756C106.341 62.0742 105.767 60.1536 106.381 58.4326L109.021 51.0369Z" fill="#78223D"/>
<path d="M90.2174 81.1791C86.6607 75.8701 90.4657 68.7411 96.8559 68.7411C101.269 68.7411 104.846 72.3186 104.846 76.7317V84.362C104.846 87.4939 102.308 90.0329 99.1756 90.0329C97.2841 90.0329 95.517 89.0898 94.4643 87.5183L90.2174 81.1791Z" fill="#660000"/>
<path d="M92.334 79.5462C89.434 75.1047 93.2869 69.3571 98.4972 70.3524C101.238 70.876 103.259 73.2167 103.377 76.0049L103.669 82.9137C103.747 84.7736 102.567 86.4545 100.791 87.0121C99.0328 87.5641 97.122 86.8794 96.1145 85.3363L92.334 79.5462Z" fill="#78223D"/>
<path d="M73.2812 47.8113C67.8412 49.2412 62.9721 44.09 64.7056 38.7391C65.936 34.9413 70.0501 32.8993 73.8189 34.2159L80.3294 36.4903C82.9343 37.4003 84.3118 40.2464 83.4092 42.8539C82.863 44.4319 81.566 45.6337 79.951 46.0582L73.2812 47.8113Z" fill="#660000"/>
<path d="M72.5001 44.4305C69.2874 44.6794 66.4435 42.3662 66.0328 39.1702C65.5525 35.433 68.5687 32.1708 72.332 32.3571L78.4686 32.6609C81.4163 32.8068 83.757 35.1933 83.8457 38.1433C83.9366 41.1636 81.6386 43.7226 78.6259 43.956L72.5001 44.4305Z" fill="#78223D"/>
<path d="M43.7684 49.5761C47.5979 43.8998 56.2115 44.7951 58.7917 51.1378C60.5729 55.5163 58.4673 60.5098 54.0888 62.291L46.5423 65.3609C43.4323 66.626 39.8856 65.1305 38.6205 62.0206C37.8569 60.1436 38.0788 58.0097 39.212 56.3299L43.7684 49.5761Z" fill="#660000"/>
<path d="M45.6076 46.6433C48.8254 41.8345 56.1863 42.9318 57.8617 48.47C58.6373 51.0337 57.8481 53.8143 55.8414 55.5883L52.7293 58.3396C50.3866 60.4107 46.8811 60.4557 44.4861 58.4455C42.0171 56.3734 41.5047 52.7744 43.2974 50.0956L45.6076 46.6433Z" fill="#78223D"/>
<path d="M42.9366 93.5641C37.6147 97.2389 30.3465 93.4869 30.2599 87.0201C30.1979 82.3913 34.0281 78.6559 38.6539 78.8338L46.3874 79.1313C48.9978 79.2317 51.1786 81.1522 51.6081 83.7291C51.9592 85.8348 51.0617 87.9537 49.305 89.1666L42.9366 93.5641Z" fill="#660000"/>
<path d="M41.8658 90.1016C38.2333 92.0028 33.7547 90.3244 32.2663 86.5041C30.8238 82.8016 32.8092 78.6505 36.5969 77.4495L41.0857 76.0262C43.2151 75.3511 45.5421 75.8229 47.2403 77.2741C50.7199 80.2475 50.0932 85.7957 46.038 87.918L41.8658 90.1016Z" fill="#78223D"/>
<path d="M53.7259 122.381C53.7295 127.885 47.5895 131.165 43.0169 128.101C39.8602 125.986 39.0157 121.713 41.1305 118.556L44.7754 113.116C46.2775 110.874 49.3127 110.274 51.5548 111.776C52.9079 112.683 53.7205 114.204 53.7215 115.832L53.7259 122.381Z" fill="#660000"/>
<path d="M53.5444 120.75C53.3407 124.86 48.3904 126.815 45.4336 123.953C44.2895 122.846 43.7707 121.243 44.0494 119.675L44.9366 114.684C45.4739 111.662 48.8291 110.07 51.5099 111.565C52.9938 112.393 53.8796 113.99 53.7955 115.687L53.5444 120.75Z" fill="#78223D"/>
<path d="M34.5324 110.169C39.2676 114.527 37.222 122.405 30.9646 123.909C26.6449 124.948 22.3014 122.287 21.2631 117.968L19.4737 110.523C18.7362 107.454 20.6256 104.369 23.6938 103.632C25.5455 103.187 27.4972 103.694 28.8984 104.983L34.5324 110.169Z" fill="#660000"/>
<path d="M34.172 112.202C36.8298 115.377 33.5757 120.023 29.6839 118.611C29.2974 118.47 28.9345 118.272 28.6077 118.022L22.6287 113.457C19.5942 111.141 20.2682 106.395 23.8278 105.015C25.7805 104.258 27.9986 104.828 29.3431 106.434L34.172 112.202Z" fill="#78223D"/>
<path opacity="0.1" fill-rule="evenodd" clip-rule="evenodd" d="M69.0857 114.323C87.48 104.118 91.8446 85.8096 91.8446 85.8096L102.402 51.3907C102.402 51.3907 103.355 47.8968 103.18 47.9609C93.349 51.686 91.2586 59.3685 91.2586 59.3685C91.2586 59.3685 87.48 70.7055 86.894 71.0306C86.3079 71.3558 86.238 70.711 86.238 70.711V37.5126C86.238 37.5126 86.4216 33.1281 81.7509 35.7195C77.0802 38.3109 77.3163 42.4707 77.3163 42.4707L77.3251 66.992C77.3251 66.992 77.3863 67.9463 76.5116 68.4316C75.7332 68.8635 75.7769 67.8839 75.7769 67.8839V38.334C75.7769 38.334 76.0656 33.3477 71.3424 35.9682C66.6192 38.5887 66.8728 43.3071 66.8728 43.3071L66.8291 72.4859C66.8291 72.4859 66.8903 73.3497 66.1118 73.7816C65.3859 74.1844 65.4121 73.2803 65.4121 73.2803V48.8366C65.4121 48.8366 65.6745 43.7166 60.8638 46.3856C56.1406 49.0061 56.3943 53.9304 56.3943 53.9304L56.3505 79.7656C56.3505 79.7656 56.438 80.4665 55.6945 80.879C54.9073 81.3157 54.9248 80.5566 54.9248 80.5566L54.8899 64.9692C54.8899 64.9692 54.9336 60.6294 50.9626 62.8326C46.7379 65.1765 46.8167 69.4484 46.8167 69.4484V103.133C46.8429 103.11 45.7496 127.271 69.0857 114.323Z" fill="black"/>
<path d="M79.4529 123.192L79.5218 123.171L79.5848 123.136C88.9953 117.915 94.1011 108.546 96.8546 100.57C98.2344 96.5728 99.0324 92.9007 99.4857 90.2275C99.7124 88.8903 99.8532 87.8014 99.9375 87.0448C99.9796 86.6664 100.008 86.371 100.025 86.1691C100.03 86.1119 100.034 86.0622 100.038 86.0203L118.818 54.3005L119.117 53.7966L118.665 53.4243L118.23 53.9521C118.665 53.4243 118.665 53.4243 118.665 53.4243L118.664 53.424L118.663 53.4232L118.659 53.4199L118.643 53.4068L118.582 53.3561L118.348 53.1637C118.146 52.9981 117.858 52.7616 117.512 52.478C116.819 51.9108 115.894 51.155 114.963 50.401C114.032 49.6475 113.093 48.8937 112.375 48.3314C112.016 48.051 111.708 47.8142 111.481 47.6481C111.369 47.5662 111.268 47.4947 111.187 47.4425C111.148 47.4178 111.099 47.3873 111.048 47.3615C111.024 47.3495 110.979 47.3277 110.922 47.3098C110.893 47.3008 110.844 47.2872 110.782 47.2805C110.728 47.2747 110.608 47.2676 110.468 47.3188L110.468 47.3187L110.461 47.3214C105.407 49.2364 102.324 52.178 100.505 54.6569C99.5964 55.8942 99.0045 57.0138 98.6381 57.8297C98.4549 58.2377 98.3278 58.5703 98.2456 58.8044C98.2044 58.9214 98.1745 59.0139 98.1544 59.0789C98.1443 59.1114 98.1367 59.1371 98.1313 59.1555L98.1281 59.1669L98.1222 59.1843L98.0906 59.2788C98.0629 59.3616 98.0222 59.4832 97.97 59.6382C97.8658 59.9482 97.7162 60.3915 97.5348 60.9246C97.1719 61.991 96.6822 63.4154 96.1745 64.8493C95.6663 66.2847 95.1422 67.7233 94.71 68.8205C94.6163 69.0587 94.5275 69.2788 94.4449 69.478V37.523L94.4451 37.5171C94.4454 37.5048 94.4457 37.4885 94.4458 37.4684C94.446 37.4282 94.4456 37.3727 94.4432 37.3048C94.4384 37.1696 94.4255 36.982 94.393 36.7662C94.3299 36.3467 94.1845 35.762 93.8302 35.2533C93.4569 34.7174 92.863 34.2876 91.9953 34.2243C91.168 34.164 90.1661 34.4425 88.9423 35.1215C86.453 36.5026 85.2437 38.3227 84.6671 39.8212C84.3808 40.5651 84.2528 41.2231 84.1965 41.7C84.1683 41.9387 84.1579 42.133 84.1548 42.2715C84.1533 42.3407 84.1535 42.3961 84.1543 42.4362C84.1547 42.4563 84.1552 42.4725 84.1556 42.4848L84.1557 42.4857L84.1644 66.9921L84.1644 67.0139L84.1653 67.0277C84.1653 67.029 84.1654 67.0308 84.1654 67.033C84.1653 67.0437 84.1649 67.0645 84.1626 67.0929C84.1579 67.1509 84.1458 67.2336 84.1172 67.3247C84.0897 67.4122 84.0485 67.5042 83.9839 67.5915V38.3501L83.9839 38.349C83.9845 38.3361 83.9851 38.3186 83.9857 38.2968C83.9869 38.2533 83.9878 38.1925 83.987 38.1178C83.9855 37.9687 83.9774 37.7612 83.9511 37.5212C83.8998 37.0533 83.7738 36.4073 83.4496 35.8324C83.1135 35.2363 82.547 34.6949 81.656 34.5565C80.8044 34.4242 79.7764 34.6807 78.5338 35.3701C75.9994 36.7762 74.7857 38.7595 74.214 40.3945C73.9297 41.2078 73.8043 41.9331 73.7499 42.4584C73.7227 42.7214 73.7132 42.9357 73.7106 43.0874C73.7093 43.1633 73.7097 43.2238 73.7106 43.267C73.711 43.2886 73.7116 43.306 73.712 43.3188L73.7121 43.3209L73.6684 72.4848L73.6684 72.5095L73.6695 72.5255C73.6695 72.5262 73.6695 72.5271 73.6695 72.5281C73.6696 72.5364 73.6694 72.5536 73.6676 72.5776C73.664 72.6267 73.6544 72.6965 73.6312 72.7729C73.6275 72.7852 73.6234 72.7976 73.6191 72.81V48.8505L73.6192 48.8467C73.6197 48.8336 73.6202 48.8157 73.6207 48.7935C73.6216 48.749 73.6221 48.6869 73.6208 48.6104C73.6183 48.4579 73.6087 48.2455 73.5804 47.9998C73.5251 47.5203 73.3926 46.8604 73.0602 46.2732C72.7165 45.666 72.1405 45.1126 71.2355 44.9673C70.3683 44.8281 69.321 45.0853 68.0552 45.7876C65.5139 47.1976 64.3022 49.2387 63.7332 50.9216C63.4499 51.7595 63.3252 52.5093 63.2711 53.0522C63.2441 53.3242 63.2346 53.5457 63.232 53.7024C63.2307 53.7808 63.2312 53.8431 63.232 53.8875C63.2325 53.9097 63.233 53.9274 63.2335 53.9405L63.2336 53.9437L63.1899 79.7643L63.1898 79.8074L63.1931 79.8333C63.1931 79.8369 63.193 79.8422 63.1927 79.8491C63.1915 79.8749 63.1867 79.9159 63.172 79.963C63.1635 79.9901 63.151 80.0222 63.1307 80.0572L63.0968 64.9701L63.0968 64.9679L63.0968 64.9676L63.0968 64.9535C63.0967 64.9418 63.0966 64.9261 63.0962 64.9067C63.0954 64.8679 63.0936 64.814 63.0898 64.7478C63.0822 64.6158 63.0665 64.4324 63.0335 64.2203C62.9691 63.8066 62.832 63.235 62.5249 62.7229C62.2086 62.1953 61.6909 61.703 60.8925 61.5633C60.1225 61.4285 59.2164 61.645 58.154 62.2345C55.8718 63.5007 54.7412 65.2989 54.188 66.78C53.9125 67.5173 53.7798 68.1758 53.7158 68.6532C53.6837 68.8924 53.6687 69.0874 53.6617 69.2258C53.6582 69.295 53.6568 69.3503 53.6562 69.3899C53.6559 69.4098 53.6559 69.4257 53.6559 69.4376L53.656 69.4523L53.656 69.4526V103.13L53.6538 103.176C53.6512 103.228 53.6473 103.307 53.6432 103.41C53.6349 103.616 53.6257 103.916 53.6234 104.295C53.6188 105.051 53.6416 106.122 53.7546 107.38C53.9798 109.888 54.5665 113.18 56.0359 116.226C57.5099 119.282 59.8865 122.117 63.6875 123.629C67.48 125.137 72.589 125.289 79.4529 123.192ZM73.2521 73.2078C73.2521 73.2077 73.2533 73.2073 73.2556 73.2066C73.2532 73.2075 73.2521 73.2078 73.2521 73.2078ZM83.64 67.863C83.64 67.8629 83.6414 67.8625 83.6439 67.8618C83.6413 67.8628 83.64 67.8631 83.64 67.863ZM63.1322 80.5565C63.1322 80.5565 63.1321 80.5565 63.1321 80.5564L63.1322 80.5565Z" fill="#C6C6C6" stroke="#C6C6C6" stroke-width="1.36761"/>
<path d="M72.3502 45.4719L71.8344 45.0017L71.3749 45.527L68.044 49.3344L67.7938 49.6204L67.9046 49.984L73.4682 68.2379L74.8023 68.1109L76.7459 49.857L76.7826 49.5126L76.5266 49.2793L72.3502 45.4719Z" fill="#C6C6C6" stroke="#C6C6C6" stroke-width="1.36761"/>
<path d="M83.2076 35.513L82.6918 35.0428L82.2323 35.5681L78.9014 39.3755L78.6492 39.6639L78.7634 40.0296L84.4128 58.1219L85.7457 57.988L87.6036 39.8956L87.6388 39.5527L87.384 39.3204L83.2076 35.513Z" fill="#C6C6C6" stroke="#C6C6C6" stroke-width="1.36761"/>
<path d="M62.3176 62.606L61.827 62.1643L61.3684 62.6391L58.0244 66.1011L57.7061 66.4306L57.8898 66.8503L65.4134 84.0401L66.7236 83.7659L66.7236 66.876L66.7236 66.5715L66.4972 66.3677L62.3176 62.606Z" fill="#C6C6C6" stroke="#C6C6C6" stroke-width="1.36761"/>
<path d="M93.6413 34.9985L93.1819 34.6228L92.7453 35.0247L88.9837 38.4867L88.5829 38.8555L88.8527 39.3285L97.1894 53.9489L98.0621 55.4793L98.4504 53.7609L101.186 41.6575L101.279 41.2452L100.952 40.9775L93.6413 34.9985Z" fill="#C6C6C6" stroke="#C6C6C6" stroke-width="1.36761"/>
<path d="M117.371 57.4696L118.03 57.6496L118.03 57.6494L118.03 57.6489L118.031 57.6469L118.033 57.6392L118.041 57.6095L118.071 57.4977C118.097 57.4015 118.134 57.2644 118.178 57.1001C118.265 56.7718 118.379 56.3337 118.489 55.8967C118.597 55.4621 118.703 55.0192 118.771 54.685C118.804 54.5224 118.833 54.364 118.846 54.2398C118.851 54.1891 118.86 54.0901 118.848 53.9871L118.848 53.9854C118.844 53.9492 118.826 53.7992 118.722 53.6508C118.658 53.5609 118.545 53.4465 118.367 53.3889C118.187 53.3306 118.024 53.3574 117.914 53.3979L117.914 53.3978L117.907 53.4005C112.852 55.3155 109.77 58.2571 107.95 60.736C107.042 61.9733 106.45 63.0929 106.084 63.9088C105.901 64.3168 105.773 64.6494 105.691 64.8835C105.65 65.0005 105.62 65.093 105.6 65.158C105.59 65.1905 105.582 65.2162 105.577 65.2346L105.574 65.2459L105.568 65.2634L105.536 65.3579C105.509 65.4407 105.468 65.5623 105.416 65.7173C105.311 66.0273 105.162 66.4706 104.98 67.0037C104.618 68.0701 104.128 69.4945 103.62 70.9284C103.112 72.3638 102.588 73.8024 102.156 74.8996C102.062 75.1377 101.973 75.3579 101.891 75.5571V43.6021L101.891 43.5962C101.891 43.5839 101.891 43.5676 101.891 43.5475C101.892 43.5073 101.891 43.4518 101.889 43.3839C101.884 43.2487 101.871 43.0611 101.839 42.8453C101.776 42.4258 101.63 41.8411 101.276 41.3324C100.902 40.7965 100.309 40.3667 99.4409 40.3034C98.6136 40.2431 97.6117 40.5216 96.3879 41.2006C93.8986 42.5817 92.6893 44.4018 92.1127 45.9003C91.8264 46.6442 91.6984 47.3022 91.6421 47.7791C91.6139 48.0178 91.6035 48.2121 91.6004 48.3506C91.5989 48.4198 91.5991 48.4752 91.5999 48.5153C91.6003 48.5354 91.6008 48.5516 91.6013 48.5639L91.6013 48.5648L91.61 73.0712L91.61 73.093L91.6109 73.1068C91.6109 73.1081 91.611 73.1098 91.611 73.1121C91.6109 73.1228 91.6105 73.1436 91.6082 73.172C91.6035 73.23 91.5914 73.3127 91.5628 73.4038C91.5353 73.4913 91.4941 73.5833 91.4295 73.6706V44.4292L91.4295 44.4281C91.4301 44.4152 91.4307 44.3977 91.4313 44.3759C91.4325 44.3324 91.4334 44.2716 91.4326 44.1969C91.4311 44.0478 91.423 43.8403 91.3967 43.6003C91.3454 43.1324 91.2194 42.4864 90.8952 41.9115C90.5591 41.3154 89.9926 40.774 89.1016 40.6356C88.25 40.5033 87.222 40.7598 85.9794 41.4492C83.445 42.8553 82.2313 44.8386 81.6596 46.4736C81.3753 47.2869 81.2499 48.0122 81.1956 48.5375C81.1683 48.8005 81.1588 49.0148 81.1562 49.1665C81.1549 49.2424 81.1553 49.3029 81.1562 49.3461C81.1566 49.3677 81.1572 49.3851 81.1576 49.3979L81.1577 49.4L81.114 78.5639L81.114 78.5886L81.1151 78.6046C81.1151 78.6053 81.1151 78.6062 81.1151 78.6072C81.1152 78.6155 81.115 78.6327 81.1132 78.6567C81.1097 78.7058 81.1 78.7756 81.0768 78.852C81.0731 78.8643 81.0691 78.8767 81.0647 78.8891V54.9296L81.0648 54.9258C81.0653 54.9127 81.0658 54.8948 81.0663 54.8726C81.0672 54.8281 81.0677 54.766 81.0665 54.6895C81.0639 54.537 81.0543 54.3246 81.026 54.0789C80.9707 53.5994 80.8382 52.9395 80.5058 52.3523C80.1621 51.7451 79.5861 51.1917 78.6812 51.0464C77.8139 50.9072 76.7666 51.1644 75.5008 51.8667C72.9595 53.2767 71.7478 55.3178 71.1788 57.0007C70.8955 57.8386 70.7708 58.5884 70.7168 59.1313C70.6897 59.4033 70.6802 59.6248 70.6776 59.7815C70.6764 59.8599 70.6768 59.9222 70.6777 59.9666C70.6781 59.9888 70.6786 60.0065 70.6791 60.0196L70.6792 60.0228L70.6355 85.8434L70.6354 85.8865L70.6387 85.9124C70.6387 85.916 70.6386 85.9213 70.6383 85.9282C70.6371 85.954 70.6323 85.995 70.6176 86.0421C70.6091 86.0692 70.5966 86.1013 70.5763 86.1363L70.5424 71.0492L70.5424 71.047L70.5424 71.0467L70.5424 71.0326C70.5424 71.0209 70.5422 71.0052 70.5418 70.9858C70.541 70.947 70.5392 70.8931 70.5354 70.8269C70.5278 70.6949 70.5121 70.5115 70.4791 70.2994C70.4147 69.8857 70.2776 69.3141 69.9705 68.802C69.6542 68.2744 69.1365 67.7821 68.3381 67.6424C67.5681 67.5076 66.6621 67.7241 65.5996 68.3136C63.3174 69.5798 62.1869 71.378 61.6336 72.8591C61.3581 73.5964 61.2254 74.2549 61.1614 74.7323C61.1293 74.9715 61.1143 75.1665 61.1073 75.3049C61.1039 75.3741 61.1024 75.4294 61.1018 75.469C61.1015 75.4889 61.1015 75.5048 61.1015 75.5167L61.1016 75.5314L61.1016 75.5317V109.212V109.271L61.1016 109.275C61.101 109.319 61.1001 109.386 61.0997 109.472C61.0991 109.581 61.0993 109.72 61.1016 109.886V110.711L61.1262 110.69C61.154 111.286 61.209 112.028 61.3162 112.859C61.5875 114.961 62.1995 117.68 63.5921 120.005C64.9978 122.352 67.2125 124.312 70.6391 124.79C74.0274 125.263 78.4903 124.272 84.3862 121C93.7183 115.823 99.4884 108.591 102.923 102.661C104.641 99.696 105.777 97.0525 106.485 95.1468C106.839 94.1937 107.086 93.4244 107.245 92.8907C107.325 92.6238 107.382 92.4158 107.42 92.2731C107.44 92.2017 107.454 92.1467 107.463 92.1088L107.473 92.0703L118.024 57.6702L118.027 57.66L118.03 57.6497L117.371 57.4696ZM70.5778 86.6356C70.5778 86.6356 70.5778 86.6356 70.5778 86.6355L70.5778 86.6356ZM117.487 54.0807C117.487 54.0806 117.487 54.0824 117.487 54.0864C117.487 54.0828 117.487 54.0808 117.487 54.0807ZM80.6977 79.2869C80.6977 79.2868 80.6989 79.2864 80.7012 79.2857C80.6989 79.2866 80.6977 79.2869 80.6977 79.2869ZM91.0856 73.9421C91.0856 73.942 91.087 73.9416 91.0896 73.9409C91.0869 73.9418 91.0856 73.9422 91.0856 73.9421Z" fill="white" stroke="#C6C6C6" stroke-width="1.36761"/>
</svg>
